# xmcd
#
# Track frame offsets:
#	150
#	19276
#	31801
#	47007
#	62368
#	76698
#	91274
#	104461
#	121116
#	135844
#	149925
#	166512
#	177488
#	192904
#	215165
#
# Disc length: 3034 seconds
#
# Revision: 2
# Processed by: cddbd v1.5.2PL0 Copyright (c) Steve Scherf et al.
# Submitted via: EasyCDDAExtractor 8.2.1.1
#
DISCID=c40bd80f
DTITLE=Norm Price - South of the Border
DYEAR=1900
DGENRE=Country
TTITLE0=South of the Border
TTITLE1=One Was My Name
TTITLE2=I Never Go Around Mirrors
TTITLE3=Nothing I Can Do About It Now
TTITLE4=Four Walls
TTITLE5=Seven Spanish Angels
TTITLE6=Bubbles In My Beer
TTITLE7=Life Turned Her That Way
TTITLE8=Cold Cold Heart
TTITLE9=I Didn't Come Here, And I Ain't Leaving
TTITLE10=Lovinng Her Was Easier Than Anything I'll Ever Do Again
TTITLE11=Blue Eyes Crying In The Rain
TTITLE12=Angel Flying Too Close To The Ground
TTITLE13=The  Ballad of Wendy (My Plastic Girl)
TTITLE14=My Herues Have Always Been Cowboys
EXTD=
EXTT0=
EXTT1=
EXTT2=
EXTT3=
EXTT4=
EXTT5=
EXTT6=
EXTT7=
EXTT8=
EXTT9=
EXTT10=
EXTT11=
EXTT12=
EXTT13=
EXTT14=
PLAYORDER=
